<?xml version="1.0" standalone="no"?>
<!DOCTYPE svg PUBLIC "-//W3C//DTD SVG 20010904//EN"
 "http://www.w3.org/TR/2001/REC-SVG-20010904/DTD/svg10.dtd">
<svg version="1.0" xmlns="http://www.w3.org/2000/svg"
 width="920.000000pt" height="512.000000pt" viewBox="0 0 920.000000 512.000000"
 preserveAspectRatio="xMidYMid meet">
<metadata>
Created by potrace 1.16, written by Peter Selinger 2001-2019
</metadata>
<g transform="translate(0.000000,512.000000) scale(0.100000,-0.100000)"
fill="#000000" stroke="none">
<path d="M3900 4855 c0 -13 -5 -35 -11 -49 -9 -20 -9 -29 1 -41 20 -24 49 -18
56 10 10 39 38 12 30 -29 -9 -53 -30 -126 -37 -126 -3 0 -14 16 -25 35 -19 36
-111 105 -139 105 -8 0 -20 9 -27 20 -7 11 -17 20 -22 20 -4 0 -3 -7 4 -15 11
-13 8 -15 -19 -15 -17 0 -31 -4 -31 -10 0 -5 -7 -7 -16 -3 -19 7 -84 -53 -84
-79 0 -21 -1 -22 -32 -5 l-24 12 21 30 c11 17 27 30 35 30 16 0 25 37 16 61
-3 9 -10 13 -16 9 -6 -4 -6 -15 1 -32 8 -23 7 -25 -10 -20 -16 4 -21 -1 -26
-24 -8 -37 -40 -59 -87 -59 -20 0 -40 -4 -43 -10 -11 -17 -71 -11 -89 9 -34
37 16 95 52 59 9 -9 12 -8 12 5 0 14 -9 17 -45 15 -24 0 -42 -5 -39 -10 3 -4
0 -8 -6 -8 -6 0 -18 -7 -27 -15 -8 -8 -19 -13 -24 -10 -5 4 -9 -3 -9 -14 0
-20 43 -41 57 -27 4 3 -3 6 -15 6 -12 0 -22 5 -22 12 0 6 3 9 6 5 4 -3 15 4
25 16 13 15 17 17 13 5 -3 -9 -1 -25 5 -36 10 -18 7 -22 -27 -33 -20 -6 -43
-16 -49 -22 -9 -6 -13 -6 -13 2 0 23 -16 10 -18 -14 l-2 -25 28 19 c27 20 46
22 69 8 9 -6 11 -3 7 7 -5 12 1 16 25 16 17 0 31 -4 31 -10 0 -5 -9 -10 -20
-10 -11 0 -20 -4 -20 -10 0 -5 4 -10 9 -10 5 0 7 -10 4 -22 -3 -15 2 -11 14
12 28 49 64 72 121 78 43 4 53 1 81 -24 21 -20 32 -39 34 -61 2 -28 4 -30 16
-18 12 12 13 18 2 39 -8 14 -10 36 -6 54 11 52 58 81 138 85 45 2 61 -3 97
-27 l43 -28 -31 -14 c-18 -7 -32 -15 -32 -17 0 -2 20 -2 45 -1 25 1 43 -1 40
-6 -3 -4 2 -13 11 -21 21 -17 35 -46 40 -81 3 -30 2 -30 -31 -25 -19 3 -35 2
-35 -3 0 -5 -12 -13 -27 -16 -42 -10 -88 -48 -109 -91 -10 -21 -17 -42 -16
-46 1 -5 -2 -6 -7 -3 -5 4 -12 2 -16 -4 -3 -5 -2 -10 3 -10 5 0 17 -15 25 -32
9 -18 29 -46 46 -62 25 -24 39 -29 77 -29 40 0 51 4 71 29 24 30 29 68 13 94
-6 9 -5 17 3 22 8 5 7 8 -4 8 -9 0 -30 7 -45 15 l-29 15 32 0 c47 0 63 -9 63
-38 0 -20 3 -23 11 -15 9 9 8 18 -5 37 -13 21 -24 26 -59 26 -37 0 -48 -6 -78
-37 -28 -30 -29 -33 -6 -16 40 31 89 15 108 -35 17 -43 -40 -101 -81 -82 -65
30 -74 38 -88 75 -13 35 -13 44 1 76 8 20 31 49 52 65 33 25 44 28 106 26 135
-3 222 -84 264 -246 23 -89 20 -152 -9 -181 l-25 -25 4 38 c2 21 -1 45 -7 53
-7 10 -8 8 -5 -9 5 -21 3 -23 -16 -18 -20 5 -20 4 -4 -8 9 -7 17 -19 17 -27 0
-11 -2 -11 -10 1 -8 12 -9 9 -8 -12 1 -15 6 -24 10 -22 4 3 8 -2 8 -10 0 -13
-44 -66 -55 -66 -2 0 -11 16 -20 35 -19 38 -13 93 11 102 8 3 11 9 8 14 -9 15
-22 10 -27 -8 -4 -14 -5 -13 -6 4 0 12 5 24 12 26 7 3 5 6 -5 6 -17 1 -23 -12
-18 -34 2 -5 2 -27 1 -48 -1 -24 6 -52 19 -74 22 -37 32 -79 32 -128 -1 -69
-10 -176 -16 -182 -12 -13 -5 -21 14 -16 22 6 27 -11 8 -24 -17 -10 -118 -11
-118 -1 0 4 -5 8 -11 8 -6 0 -8 -8 -4 -19 3 -10 -1 -24 -10 -31 -13 -11 -18
-10 -29 6 -12 16 -12 20 5 32 10 7 19 19 18 25 0 9 -2 9 -6 0 -8 -21 -45 -16
-41 5 3 12 12 17 33 15 29 -1 30 -1 6 10 -20 10 -27 8 -47 -16 -19 -23 -27
-26 -43 -17 -13 7 -28 7 -46 0 -38 -15 -43 -13 -37 16 3 19 7 22 13 12 19 -29
8 12 -13 53 -33 63 -53 83 -108 109 -48 22 -48 23 -28 39 18 15 18 18 4 30
-16 14 -36 7 -36 -12 0 -8 3 -7 9 2 5 7 14 10 20 7 22 -14 0 -26 -46 -26 -37
0 -44 3 -39 16 3 9 6 22 6 29 0 8 16 30 35 50 46 46 100 48 118 5 5 -10 6 -9
4 5 -3 29 -50 49 -79 34 l-23 -12 20 23 c33 36 76 54 148 60 37 3 67 3 67 -1
0 -3 15 -13 34 -21 36 -18 66 -65 66 -105 0 -14 -13 -38 -29 -54 -23 -22 -39
-29 -70 -29 -48 0 -62 15 -21 24 23 4 30 11 30 30 0 45 -51 61 -67 20 -7 -18
15 -36 31 -27 6 4 5 8 -2 11 -19 6 -14 22 8 22 13 0 20 -7 20 -20 0 -11 -1
-20 -3 -20 -1 0 -17 -4 -35 -9 -18 -6 -30 -6 -27 -1 2 4 -2 13 -10 20 -17 14
-12 45 13 73 22 25 7 21 -18 -5 -39 -43 -19 -98 50 -133 19 -10 46 -24 60 -31
35 -17 39 -61 8 -73 -14 -6 -17 -10 -7 -10 9 -1 24 8 34 19 18 20 18 21 -3 50
l-22 29 38 4 c36 4 36 4 -8 6 l-45 2 28 15 c24 13 31 13 45 2 15 -11 15 -11 5
3 -14 17 -8 29 15 29 10 0 12 -7 8 -26 -5 -17 -3 -23 4 -19 18 11 11 47 -10
52 -15 4 -17 9 -10 23 19 36 11 78 -21 115 -31 35 -85 65 -118 65 -12 0 -17 8
-16 28 0 20 -5 27 -20 27 -11 0 -21 -8 -23 -17 -2 -10 1 -18 7 -18 6 0 8 7 5
15 -7 16 11 21 20 6 12 -18 -7 -40 -42 -52 -66 -21 -116 -51 -151 -90 l-35
-39 -18 58 c-22 72 -23 105 0 124 29 26 49 28 68 7 16 -18 16 -21 1 -36 -14
-14 -19 -14 -34 -3 -17 13 -17 13 0 -5 17 -19 17 -19 38 2 17 17 19 24 10 42
-7 11 -16 21 -21 21 -6 0 -5 9 2 20 15 23 -1 46 -26 37 -18 -7 -22 -27 -6 -27
6 0 10 5 10 10 0 6 5 10 10 10 25 0 6 -31 -27 -45 -21 -9 -40 -21 -44 -27 -4
-7 -14 -3 -28 11 -26 26 -71 28 -72 4 -1 -10 -1 -24 0 -30 1 -7 -6 -13 -16
-13 -10 0 -33 -9 -50 -20 -29 -17 -33 -25 -33 -63 0 -53 13 -67 61 -67 63 0
87 63 32 84 -15 6 -16 5 -1 -11 22 -25 7 -63 -25 -63 -33 0 -49 22 -45 62 2
26 10 37 39 53 36 18 38 18 76 1 54 -24 72 -58 68 -125 -9 -120 -142 -210
-225 -151 -16 11 -31 30 -33 43 -4 14 -5 12 -4 -8 2 -25 10 -34 45 -51 l42
-22 -33 -33 c-18 -19 -41 -47 -52 -64 -26 -40 -64 -152 -65 -189 l0 -30 -27
26 c-16 14 -51 41 -79 59 -71 47 -141 114 -166 157 -43 76 -22 233 38 283 61
50 164 56 209 12 28 -29 34 -85 11 -109 -21 -20 -28 -17 -20 8 6 21 6 21 -12
4 -17 -18 -18 -18 -25 0 -6 14 -8 15 -8 4 -1 -9 4 -21 11 -28 18 -18 1 -27
-27 -14 -43 20 -42 92 1 92 7 0 16 5 19 10 4 6 -5 10 -20 10 -14 0 -24 -4 -21
-9 3 -5 -1 -14 -8 -20 -11 -10 -16 -8 -24 5 -8 15 -10 15 -15 0 -4 -9 -1 -15
6 -13 6 1 13 -9 15 -23 5 -36 41 -70 73 -70 56 0 87 27 93 80 3 31 16 42 34
28 12 -10 14 -10 8 0 -4 7 -1 12 8 12 20 0 20 -20 1 -46 -19 -26 -19 -39 1
-20 8 9 25 17 37 17 16 1 17 3 5 6 -9 2 -18 14 -20 26 -2 17 -12 23 -41 28
-21 3 -50 17 -65 31 -30 28 -139 54 -157 37 -19 -19 -35 -9 -35 24 0 44 20 80
50 88 24 7 24 7 3 8 -26 1 -27 5 -13 31 15 28 67 50 117 50 36 0 50 -6 75 -30
l30 -30 -19 -33 c-32 -54 -113 -48 -113 9 0 12 10 30 22 38 16 11 18 16 7 16
-43 0 -55 -78 -17 -104 33 -23 80 -20 96 5 9 13 20 19 32 16 29 -7 45 17 23
34 -16 12 -17 12 -6 -2 7 -9 10 -19 6 -22 -10 -11 -32 13 -27 28 9 22 -24 72
-57 89 -35 17 -69 21 -69 7 0 -4 -11 -7 -24 -6 -33 4 -91 -57 -116 -121 -10
-27 -19 -42 -20 -33 0 8 -12 26 -26 40 -38 35 -47 56 -34 79 12 22 45 27 56 9
3 -6 0 -15 -7 -20 -9 -6 -10 -9 -2 -9 22 0 26 23 7 39 -10 9 -19 23 -19 31 0
8 -9 16 -20 17 -11 2 -14 0 -7 -3 14 -7 17 -34 3 -34 -5 0 -13 -9 -16 -20 -8
-26 -25 -16 -25 15 0 13 -5 27 -11 31 -20 12 -5 111 21 139 48 51 140 38 140
-20 0 -14 -2 -25 -5 -25 -11 0 -44 34 -39 42 7 11 -28 10 -46 -2 -9 -6 -11
-13 -5 -17 6 -5 15 -17 21 -28 15 -26 41 -31 64 -10 25 23 31 61 11 79 -19 17
-68 31 -93 27 -19 -2 -25 23 -8 34 6 3 10 14 10 23 -1 22 -29 -26 -30 -50 0
-9 -14 -28 -30 -42 -26 -22 -31 -33 -33 -80 -2 -54 -9 -67 -22 -46 -3 6 -24
10 -46 10 -33 0 -39 3 -39 21 0 16 -5 20 -20 16 -11 -3 -20 -1 -20 4 0 5 7 9
16 9 14 0 14 2 0 15 -19 19 -26 19 -26 -2 0 -15 -2 -15 -19 1 -11 10 -26 16
-33 13 -8 -4 -7 -6 5 -6 18 -1 24 -26 7 -36 -6 -3 -7 1 -4 9 8 20 -10 21 -26
1 -10 -12 -9 -16 5 -21 10 -4 26 -2 36 4 26 17 29 15 29 -15 l1 -28 19 24 c11
13 20 19 20 14 0 -5 -11 -19 -23 -32 -37 -33 -82 -26 -108 19 -12 19 -18 32
-13 28 7 -8 34 9 34 22 0 4 -11 5 -25 2 -14 -2 -25 -10 -25 -17 0 -8 -9 -17
-21 -20 -12 -4 -19 -14 -17 -23 4 -23 33 -22 32 1 -2 26 19 21 33 -8 9 -20 8
-25 -2 -25 -8 0 -16 -4 -19 -8 -3 -5 8 -8 24 -8 16 1 28 -3 27 -9 -1 -5 -5 -9
-8 -8 -11 4 -9 -100 2 -114 6 -7 26 -13 44 -13 54 0 82 51 51 93 -24 31 -46
21 -47 -20 0 -31 -2 -34 -9 -18 -6 14 -9 15 -10 5 -1 -10 -5 -8 -12 7 -8 17
-6 27 8 47 46 63 157 74 201 19 23 -28 22 -46 -2 -36 -14 5 -19 -6 -16 -34 1
-7 -7 -18 -19 -25 -24 -15 -28 -69 -6 -87 19 -16 68 -10 74 8 3 8 0 11 -7 7
-6 -4 -11 0 -11 9 0 9 5 13 10 10 6 -3 10 -2 10 3 0 6 -6 12 -14 15 -10 4 -13
-2 -12 -24 2 -29 -7 -35 -37 -23 -15 5 -12 49 6 72 11 14 71 16 96 2 28 -15
44 -65 37 -112 -8 -49 -53 -98 -91 -98 -29 0 -31 7 -8 32 9 10 11 18 5 18 -6
0 -12 -6 -15 -12 -2 -7 -7 -10 -11 -7 -11 10 5 39 18 32 6 -4 5 1 -3 10 -14
17 -36 13 -25 -4 3 -6 -4 -13 -15 -16 -25 -6 -22 -29 3 -25 9 2 16 -2 16 -8 0
-5 -5 -10 -11 -10 -5 0 -8 -4 -5 -8 2 -4 -11 -23 -30 -41 -23 -23 -34 -43 -34
-63 0 -29 0 -29 -30 -13 -16 9 -30 12 -30 8 0 -5 -14 -16 -30 -25 -32 -18 -38
-39 -16 -57 19 -16 46 -3 46 23 -1 19 -2 19 -11 3 -11 -19 -29 -14 -29 9 0 16
46 19 70 4 9 -6 17 -5 22 3 5 8 8 4 8 -10 0 -12 5 -25 10 -28 25 -16 4 -24
-72 -28 -46 -2 -93 -7 -105 -11 -19 -7 -21 -4 -26 46 -2 29 -7 62 -11 73 -5
15 -1 22 16 30 13 6 23 19 23 30 0 11 5 23 10 27 6 4 2 8 -9 8 -13 0 -17 -5
-13 -20 3 -13 0 -20 -9 -20 -8 0 -14 -4 -14 -10 0 -14 -36 -12 -47 3 -5 6 -17
33 -27 58 -9 25 -28 56 -41 69 -13 13 -22 26 -20 30 2 4 -2 7 -10 7 -8 0 -15
-4 -15 -9 0 -4 -13 -8 -28 -8 -30 0 -52 -16 -52 -37 0 -8 7 -6 20 7 35 35 113
20 103 -20 -3 -11 -9 -17 -14 -14 -5 3 -9 0 -9 -5 0 -6 5 -11 10 -11 14 0 12
-37 -2 -43 -7 -3 1 -6 17 -6 65 -2 104 -56 101 -138 -1 -39 -7 -58 -26 -77
l-24 -26 -13 31 c-21 50 -63 76 -63 40 0 -11 -6 -22 -12 -24 -10 -4 -9 -8 2
-16 12 -9 13 -11 1 -11 -8 0 -11 -3 -8 -6 11 -12 39 19 34 38 -7 26 8 22 27
-7 45 -68 -60 -158 -164 -140 -62 11 -95 66 -66 110 12 19 25 25 50 25 19 0
36 -6 39 -12 7 -22 -5 -48 -21 -48 -8 0 -21 8 -28 18 -13 16 -13 16 -14 -1 0
-26 41 -39 63 -19 44 39 -5 101 -65 80 -34 -12 -62 -62 -48 -88 14 -27 12 -33
-8 -28 -17 5 -30 -3 -46 -30 -7 -12 -4 -12 15 -1 29 16 52 13 104 -13 36 -19
38 -22 21 -32 -36 -20 -95 -77 -101 -97 -4 -10 -13 -19 -21 -19 -8 0 -14 -7
-14 -15 0 -8 5 -14 12 -13 8 2 11 -8 9 -31 -2 -23 1 -31 9 -26 7 4 11 1 9 -6
-1 -8 -1 -20 0 -26 2 -18 55 -43 91 -43 20 0 30 -5 30 -15 0 -18 14 -19 41 -4
20 10 20 11 2 24 -10 7 -14 17 -10 21 4 5 12 2 17 -6 7 -11 10 -11 10 -2 0 9
7 8 25 -4 24 -16 27 -15 45 1 15 14 17 21 9 32 -15 18 -39 17 -39 -2 0 -8 5
-15 11 -15 5 0 7 5 4 10 -3 6 -2 10 4 10 17 0 23 -20 7 -26 -20 -8 -79 18 -64
27 24 15 -39 109 -73 109 -17 0 -9 -18 11 -23 13 -3 20 -13 19 -29 0 -22 -1
-22 -10 -3 -9 19 -9 18 -5 -2 3 -16 -1 -23 -11 -23 -10 0 -14 6 -10 20 3 11 1
18 -4 14 -14 -9 -10 -34 6 -41 9 -3 25 3 35 12 19 18 20 17 20 -7 0 -34 -30
-58 -71 -58 -83 1 -117 96 -64 180 28 45 50 53 43 16 -4 -20 0 -26 20 -31 14
-3 29 -2 35 4 7 7 3 8 -10 5 -21 -6 -41 12 -28 24 3 3 9 1 13 -5 4 -7 13 -9
21 -4 9 6 7 10 -8 14 -12 3 -21 10 -21 16 0 17 61 51 90 51 21 0 25 -4 25 -26
-1 -15 4 -42 10 -62 12 -35 59 -92 76 -92 5 0 18 -15 29 -32 13 -22 20 -27 20
-16 0 10 15 25 33 34 54 28 77 54 77 91 0 38 -29 73 -61 73 -12 0 -28 8 -35
18 -13 16 -14 16 -7 -2 5 -15 3 -18 -10 -13 -12 5 -17 1 -17 -13 0 -10 -4 -22
-10 -25 -5 -3 -10 -1 -10 4 0 6 -5 11 -10 11 -15 0 26 -76 45 -83 9 -4 15 -1
15 7 0 8 -9 16 -19 19 -14 3 -18 11 -14 26 8 31 28 43 65 39 25 -2 36 -10 46
-31 15 -31 7 -53 -9 -24 -6 9 -15 17 -21 17 -6 0 -4 -8 5 -18 10 -10 17 -23
17 -29 0 -17 -34 -41 -60 -43 -48 -4 -60 0 -95 35 -32 32 -35 41 -35 92 0 42
6 65 22 88 21 32 75 74 100 79 7 2 20 6 28 9 8 3 30 7 48 10 24 3 32 0 28 -10
-6 -15 10 -18 19 -3 3 6 19 10 34 10 22 0 32 -7 45 -32 8 -18 16 -27 16 -20 0
7 -5 23 -11 34 -11 20 -9 21 21 15 17 -4 46 -13 63 -21 18 -7 47 -19 66 -27
18 -7 45 -22 60 -33 14 -12 33 -25 42 -31 57 -36 97 -65 114 -85 11 -13 16
-21 10 -18 -56 28 -95 43 -120 46 -16 2 -34 8 -39 13 -6 5 -69 9 -142 9 -118
0 -134 2 -158 21 -17 14 -26 30 -26 50 0 16 -5 29 -11 29 -14 0 -1 -60 18 -82
18 -20 96 -40 149 -37 80 4 80 -1 1 -43 -141 -74 -249 -205 -264 -319 -6 -38
-16 -49 -28 -29 -3 6 -14 10 -22 10 -13 0 -10 -7 11 -28 34 -36 42 -87 25
-148 -15 -52 -73 -122 -104 -126 -11 -2 -22 -6 -25 -10 -3 -4 -29 -8 -58 -9
-45 -2 -57 2 -82 26 -36 34 -39 71 -9 109 32 41 109 33 109 -12 0 -25 -29 -44
-56 -38 -17 5 -23 3 -19 -4 9 -14 58 -13 73 2 16 16 15 73 0 85 -18 15 -67 22
-74 11 -3 -4 -10 -5 -16 -2 -7 5 -8 2 -3 -6 6 -9 4 -12 -7 -8 -18 7 -29 0 -45
-29 -16 -27 -17 -65 -3 -79 18 -18 20 -54 4 -54 -8 0 -14 -5 -14 -11 0 -6 7
-8 16 -5 8 3 13 2 9 -3 -3 -5 1 -12 7 -14 7 -3 3 -6 -10 -6 -15 -1 -26 7 -32
22 -6 16 -9 17 -9 5 -1 -19 35 -48 60 -48 12 0 18 -11 21 -39 3 -35 0 -41 -19
-46 -14 -3 -23 -13 -23 -24 0 -20 25 -35 42 -25 17 11 26 48 15 65 -21 34 22
94 73 103 45 7 120 38 120 48 0 5 5 8 11 8 8 0 8 -4 2 -12 -25 -31 -45 -120
-39 -171 14 -110 12 -141 -6 -145 -12 -2 -18 3 -18 13 0 11 5 15 15 11 8 -3
15 -1 15 4 0 16 -26 12 -41 -6 -10 -13 -10 -17 2 -25 22 -13 34 -11 54 11 22
24 29 58 16 74 -7 9 -16 97 -12 128 1 4 13 -4 27 -17 30 -28 51 -31 77 -10 13
9 17 20 12 34 -6 21 -39 29 -49 13 -3 -5 5 -8 17 -8 26 1 29 -22 6 -37 -13 -8
-24 -6 -43 6 -21 14 -26 25 -26 57 0 41 30 101 64 129 15 12 19 11 32 -7 8
-12 20 -22 27 -22 6 0 22 -11 36 -24 39 -37 138 -59 194 -44 59 15 111 2 115
-31 3 -16 -2 -24 -17 -28 -20 -5 -30 -23 -13 -23 15 0 42 36 42 54 0 10 -9 25
-20 34 l-21 17 21 40 c11 22 23 57 26 77 6 35 8 36 40 31 29 -5 38 -1 59 23
25 30 31 44 17 44 -4 0 -12 -10 -17 -22 -14 -32 -33 -34 -30 -3 3 19 -1 25
-16 25 -21 0 -24 -11 -8 -27 7 -7 4 -12 -10 -16 -15 -4 -27 3 -42 21 -27 34
-19 76 21 116 23 23 40 30 84 34 85 7 149 -33 190 -117 18 -39 22 -175 6 -243
-5 -24 -23 -99 -40 -166 -16 -68 -30 -132 -30 -143 0 -10 -4 -19 -10 -19 -5 0
-10 -18 -10 -39 0 -22 -5 -41 -11 -43 -6 -2 -10 -12 -8 -22 3 -11 22 15 53 73
27 50 52 91 56 91 9 0 20 -52 20 -96 0 -18 -7 -62 -15 -98 -36 -154 -58 -766
-35 -952 14 -112 33 -180 90 -322 28 -67 50 -127 50 -132 0 -25 -44 -4 -111
53 -121 104 -237 248 -290 362 -39 82 -43 159 -14 265 9 36 18 70 19 75 1 6
10 33 19 60 9 28 18 59 20 70 2 11 7 27 10 35 13 33 77 265 83 301 4 26 3 39
-5 39 -6 0 -11 -13 -11 -30 0 -16 -4 -30 -10 -30 -5 0 -10 -8 -10 -17 0 -20
-57 -209 -71 -235 -5 -10 -9 -26 -9 -36 0 -9 -8 -40 -18 -67 -10 -28 -24 -77
-32 -110 -7 -33 -18 -66 -24 -73 -5 -8 -10 -57 -10 -110 0 -77 3 -103 18 -124
10 -15 17 -29 17 -32 -1 -8 31 -64 56 -100 12 -17 33 -47 47 -66 38 -55 344
-350 415 -400 93 -65 106 -68 70 -15 -16 23 -29 46 -29 51 0 4 -6 15 -14 23
-21 23 -186 353 -186 371 0 9 -4 20 -9 25 -11 13 -28 107 -42 236 -12 109 -8
347 11 589 23 313 21 298 44 318 102 95 275 100 319 11 13 -28 15 -29 20 -9 3
13 0 23 -9 27 -12 4 -12 8 3 19 23 17 75 18 92 2 9 -9 12 -9 7 -1 -3 6 1 13
11 16 10 3 -2 6 -27 7 -25 1 -39 4 -32 7 6 2 12 9 12 15 0 6 -12 3 -26 -6 -29
-20 -92 -23 -122 -7 -27 14 -123 14 -159 0 -33 -13 -74 -31 -87 -37 -11 -6 6
141 20 178 6 16 23 104 29 155 16 117 29 185 36 185 5 0 9 -5 9 -10 0 -6 20
-23 46 -39 25 -16 40 -32 35 -36 -14 -8 -14 -52 -1 -60 6 -3 10 1 10 9 0 22
17 20 23 -1 3 -13 5 -11 6 6 1 19 -3 22 -20 18 -15 -4 -19 -2 -15 10 3 8 6 17
6 19 0 2 13 4 28 4 62 0 115 -78 78 -115 -24 -24 -45 -18 -55 18 -9 30 -9 30
-10 6 -1 -32 14 -46 54 -52 34 -5 60 10 47 27 -5 6 -12 24 -16 40 -6 25 -5 28
11 21 32 -14 80 -17 87 -6 5 7 -6 11 -33 11 -22 0 -43 5 -46 11 -4 6 0 9 8 7
9 -2 15 1 14 7 -3 12 -27 16 -27 4 0 -14 -26 -10 -40 6 -11 13 -9 20 13 43 19
20 27 39 27 63 0 19 5 40 12 47 9 9 9 12 0 12 -7 0 -12 -5 -12 -11 0 -6 -16
-1 -35 11 -35 21 -37 21 -55 5 -11 -10 -20 -28 -19 -39 1 -20 1 -19 7 2 8 25
29 30 24 5 -2 -9 2 -13 10 -10 7 2 12 10 10 16 -5 23 29 10 38 -15 21 -54 -15
-104 -75 -104 -58 0 -144 77 -160 143 -7 28 28 94 79 147 44 47 118 100 139
100 7 0 17 3 21 7 9 10 95 32 124 33 38 0 128 -29 153 -50 69 -56 89 -95 84
-163 -4 -58 -28 -95 -75 -118 -29 -14 -39 -14 -64 -4 -24 10 -31 20 -31 42 0
21 5 29 23 31 15 2 22 -2 22 -12 0 -9 -4 -16 -10 -16 -5 0 -10 -5 -10 -11 0
-6 6 -9 13 -6 19 6 15 51 -6 55 -45 9 -64 -55 -25 -82 19 -14 20 -16 4 -16
-31 0 -76 54 -76 92 0 46 38 83 83 80 37 -3 77 -37 77 -65 0 -11 3 -17 6 -14
4 4 1 27 -6 52 -23 82 -103 120 -149 72 -19 -22 -20 -25 -6 -37 14 -11 14 -15
0 -30 -22 -25 -29 -76 -15 -110 14 -34 72 -69 111 -68 28 0 119 38 119 49 0 7
37 5 83 -7 30 -7 57 9 56 35 0 11 -3 9 -9 -6 -6 -15 -18 -23 -34 -23 -14 0
-32 9 -41 23 -13 19 -17 20 -25 7 -6 -9 -10 -10 -10 -3 0 6 5 15 10 18 6 3 10
32 10 64 0 75 -30 145 -73 172 -18 10 -26 19 -19 19 7 0 10 5 7 10 -3 6 -15
10 -25 10 -49 0 -30 48 34 85 52 30 106 33 131 5 21 -23 13 -50 -15 -50 -23 0
-26 10 -8 28 9 9 8 12 -5 12 -19 0 -24 -44 -7 -55 17 -10 49 5 55 26 8 24 -19
69 -40 69 -27 0 -15 17 16 24 86 17 164 -7 219 -66 22 -24 29 -28 24 -13 -6
20 -5 20 10 1 9 -11 16 -27 16 -35 0 -14 -1 -14 -10 -1 -7 11 -8 5 -4 -20 4
-19 8 -37 10 -39 6 -6 -23 -55 -43 -73 -31 -28 -105 -26 -141 3 -17 13 -31 28
-31 33 -1 5 7 2 17 -7 22 -20 41 -21 65 -3 35 27 6 93 -31 69 -27 -17 -27 -43
0 -42 17 1 18 3 6 6 -27 7 -22 23 7 23 31 0 35 -34 5 -50 -47 -25 -86 34 -53
79 27 36 77 40 109 10 20 -19 24 -20 24 -6 0 10 -15 23 -36 32 -31 13 -40 13
-69 1 -69 -29 -75 -100 -15 -180 27 -36 40 -63 40 -85 0 -35 -22 -50 -45 -31
-19 16 -19 37 0 43 11 4 10 4 -2 3 -30 -2 -29 -44 1 -57 22 -10 29 -9 46 6 24
22 25 36 4 77 l-16 31 30 -22 c56 -39 133 -17 103 31 -10 17 -9 22 7 36 34 30
47 84 33 134 -13 43 -71 108 -96 108 -8 0 -15 5 -17 11 -2 7 -39 11 -98 11
-82 -1 -102 -4 -145 -26 -53 -27 -62 -27 -50 1 9 19 10 27 20 88 8 55 39 85
86 85 20 0 40 -6 42 -12 4 -10 6 -9 6 1 1 8 8 19 17 26 14 10 15 19 5 64 -13
59 -5 152 16 193 7 15 13 30 13 33 -5 35 142 215 175 215 7 0 18 7 25 15 7 8
27 17 46 21 19 3 37 10 40 15 7 12 161 12 168 0 3 -4 18 -11 33 -14 16 -3 48
-26 72 -51 41 -41 45 -51 49 -104 7 -98 -25 -141 -116 -153 -55 -8 -58 -7 -89
23 -37 35 -40 55 -18 98 18 34 65 47 108 31 26 -10 50 -47 40 -63 -2 -5 1 -8
6 -8 16 0 13 22 -9 68 -24 49 -59 75 -92 69 -22 -4 -21 -4 3 -6 14 0 33 -9 42
-18 15 -17 13 -18 -17 -17 -18 1 -38 4 -45 8 -7 4 -10 2 -9 -5 4 -17 -19 -22
-25 -5 -4 9 1 22 9 31 9 8 11 15 5 15 -17 0 -30 -33 -24 -61 3 -15 0 -30 -6
-33 -6 -4 -11 -31 -11 -60 0 -43 4 -56 25 -74 14 -12 32 -22 41 -22 10 0 6 -8
-14 -25 -16 -13 -35 -38 -42 -55 -7 -16 -16 -30 -21 -30 -5 0 -4 -8 3 -19 17
-28 -23 -81 -63 -81 -22 0 -29 5 -29 20 0 10 8 24 18 29 9 6 12 11 6 11 -16 0
-30 -20 -38 -52 -4 -17 -2 -28 4 -28 5 0 10 -12 10 -26 0 -14 4 -23 10 -19 6
4 8 10 5 14 -7 12 18 39 40 43 11 2 26 11 34 21 13 18 14 18 37 -3 18 -18 30
-21 58 -16 23 4 36 3 36 -4 0 -5 -4 -10 -10 -10 -5 0 -10 -6 -10 -14 0 -10
-10 -13 -35 -9 -35 5 -65 -12 -65 -36 0 -16 15 -13 30 4 7 8 16 15 21 15 5 0
9 -7 9 -15 0 -8 5 -15 11 -15 6 0 9 7 5 15 -3 9 0 15 9 15 21 0 38 38 42 92
l3 47 -33 -1 c-38 -1 -58 -14 -50 -34 8 -21 23 -17 23 6 0 24 18 27 27 4 5
-13 7 -13 14 -2 7 10 9 10 9 -3 0 -20 -31 -49 -52 -49 -38 0 -63 42 -59 101 2
28 77 94 115 100 32 5 35 3 38 -20 2 -14 -2 -35 -8 -46 -15 -26 -1 -65 26 -72
11 -3 20 -10 20 -15 0 -5 5 -6 10 -3 18 11 11 23 -20 34 -16 5 -30 13 -30 17
0 3 8 3 17 0 15 -6 15 -5 -1 13 -17 19 -17 19 0 17 10 -2 21 -14 25 -27 5 -19
8 -20 13 -9 4 9 16 17 28 17 12 1 26 8 32 15 6 7 7 10 2 6 -22 -17 -65 -8 -85
18 -30 38 -26 56 19 84 22 14 40 32 40 40 0 13 1 13 10 0 5 -8 10 -10 10 -5 0
6 5 2 11 -7 5 -10 15 -18 20 -18 6 0 3 10 -5 22 -10 14 -16 45 -16 83 0 74
-24 129 -74 173 -20 17 -31 32 -24 32 7 0 -2 8 -19 16 -18 9 -33 20 -33 23 0
11 52 55 81 70 14 7 47 11 75 9 43 -3 49 -6 52 -27 4 -29 -11 -46 -33 -37 -14
5 -15 9 -5 21 10 12 9 15 -5 15 -21 0 -16 -29 7 -44 14 -8 22 -6 39 11 21 21
21 23 5 48 -9 14 -27 30 -38 34 -36 13 -2 23 74 22 122 -2 198 -64 198 -162 0
-87 -75 -133 -155 -95 -42 20 -55 42 -48 81 12 66 74 93 127 54 l31 -22 -24
26 c-39 43 -117 32 -140 -20 -23 -49 -12 -89 41 -148 14 -16 31 -46 37 -65
l11 -35 -3 36 c-3 35 -1 36 21 28 35 -14 40 -10 9 7 -15 8 -32 12 -37 9 -5 -3
-11 -2 -14 3 -2 4 5 9 17 9 12 1 32 5 45 8 15 4 22 1 22 -10 0 -8 4 -15 10
-15 5 0 7 7 4 15 -4 11 1 15 17 16 13 0 18 3 11 6 -10 4 -8 9 5 22 25 23 46
61 33 61 -5 0 -10 5 -10 11 0 5 5 7 10 4 6 -4 10 8 10 29 0 24 -5 36 -14 36
-8 0 -17 7 -20 16 -9 22 -8 26 5 18 8 -4 7 0 -1 15 -15 28 -68 61 -89 54 -9
-2 -4 5 12 17 30 24 36 55 12 64 -8 3 -15 1 -15 -4 0 -6 5 -10 10 -10 20 0 9
-27 -15 -38 -17 -8 -33 -8 -51 -2 -51 20 -115 8 -217 -40 -30 -14 -46 -8 -30
12 6 7 16 40 22 73 7 33 18 68 25 77 18 24 57 37 82 27 17 -6 27 -2 43 15 19
20 20 25 7 35 -9 7 -21 11 -28 8 -8 -4 -7 -6 5 -6 26 -1 21 -31 -5 -32 -43 -1
-73 -6 -90 -14 -14 -5 -18 -2 -18 13 0 33 -33 66 -58 58 -11 -4 -23 -15 -26
-24 -5 -14 -15 -16 -51 -14 -30 3 -45 0 -45 -8 0 -6 -4 -8 -10 -5 -5 3 -10 -1
-10 -9 0 -9 -5 -16 -11 -16 -5 0 -7 5 -3 12 4 6 3 8 -4 4 -6 -3 -13 2 -15 11
-3 12 -5 9 -5 -7 0 -14 -3 -39 -7 -56 -5 -24 -2 -36 20 -62 31 -37 53 -40 83
-12 25 23 28 52 9 68 -10 9 -12 4 -9 -23 4 -34 3 -35 -31 -35 -36 0 -47 12
-47 51 0 20 56 79 75 79 5 0 3 -5 -5 -10 -11 -7 -6 -10 22 -10 83 0 117 -112
60 -195 -15 -22 -38 -44 -50 -50 -12 -5 -22 -13 -22 -17 0 -5 -8 -8 -18 -8
-10 0 -23 -5 -28 -10 -19 -19 -113 -14 -142 7 -38 28 -56 67 -44 101 7 23 14
27 48 27 35 0 39 -3 39 -25 0 -31 -33 -40 -52 -14 -7 10 -13 13 -13 7 0 -5 9
-18 19 -27 16 -15 22 -15 40 -4 23 14 28 47 9 66 -21 21 -75 15 -92 -10 -22
-31 -20 -56 9 -106 l24 -42 -36 -15 c-19 -8 -40 -15 -45 -15 -5 0 -21 -9 -35
-20 -14 -11 -29 -20 -33 -20 -5 0 -11 24 -15 53 -6 53 -16 86 -42 145 -17 38
-12 144 6 150 6 2 11 14 11 27 0 23 78 111 88 100 3 -3 11 0 18 6 20 17 77 2
104 -26 43 -46 19 -135 -35 -135 -39 0 -55 40 -32 78 12 17 44 15 51 -4 4 -9
9 -14 13 -10 10 9 -38 56 -58 56 -30 0 -40 -24 -30 -71 12 -51 34 -71 70 -62
29 7 41 17 59 53 11 21 10 31 -7 66 -20 42 -58 74 -86 74 -8 0 -15 6 -15 14 0
23 41 66 63 66 18 0 19 2 7 10 -13 9 -13 11 0 20 57 37 135 9 143 -53 l4 -32
1 36 c3 49 -30 79 -86 79 -34 0 -48 -7 -82 -38 l-40 -39 -1 31 c-1 30 -2 29
-9 -7 -4 -21 -13 -48 -20 -62 -17 -32 -68 -57 -92 -44 -23 12 -23 26 0 32 9 2
7 3 -5 2 -27 -3 -27 -2 -8 35 14 27 14 30 1 30 -9 0 -13 -6 -10 -14 3 -8 1
-17 -5 -21 -19 -11 -12 -43 14 -63 l24 -19 -24 -23 c-14 -13 -29 -19 -37 -15
-10 6 -10 5 -1 -5 12 -13 6 -43 -7 -35 -5 3 -12 0 -16 -6 -5 -8 -3 -9 6 -4 10
6 11 4 5 -11 -4 -10 -10 -34 -13 -51 -2 -19 -10 -33 -18 -33 -21 0 -26 18 -7
29 15 9 12 11 -17 11 -47 2 -89 28 -122 76 -39 56 -39 139 -1 184 23 28 31 31
70 28 44 -3 58 6 23 15 -14 4 -18 11 -14 24 5 16 4 16 -5 1 -9 -13 -64 -48
-76 -48 -4 0 1 36 7 45 3 6 -16 21 -43 34 -50 26 -62 46 -31 54 13 4 11 5 -5
6 -18 1 -23 -4 -23 -24z m-270 -1021 c74 -26 110 -73 110 -146 0 -61 -23 -88
-77 -88 -37 0 -44 3 -39 16 3 8 2 13 -3 9 -5 -3 -12 1 -14 7 -3 8 -6 6 -6 -4
-1 -10 8 -23 19 -30 11 -7 20 -16 20 -20 0 -10 -62 10 -76 24 -15 16 -20 56
-11 84 15 45 94 52 122 11 8 -12 15 -17 15 -11 0 19 -65 72 -97 79 -18 4 -33
4 -33 1 0 -3 15 -10 33 -15 24 -7 26 -9 10 -10 -12 -1 -25 -6 -28 -12 -4 -6
-12 -8 -19 -6 -12 5 -18 -23 -19 -86 -1 -51 28 -80 85 -83 27 -1 55 4 74 16
31 17 31 17 27 -1 -3 -10 5 -32 17 -49 16 -23 29 -30 54 -30 41 0 56 15 56 57
0 24 -4 33 -17 33 -13 0 -14 -3 -5 -12 17 -17 15 -39 -5 -54 -26 -20 -41 -17
-59 11 -31 47 14 105 81 105 39 0 95 -63 95 -106 0 -98 -95 -184 -211 -190
-72 -4 -115 20 -124 70 -10 50 1 74 37 82 26 5 35 2 50 -16 13 -16 18 -18 18
-7 0 24 -26 39 -62 35 -26 -2 -37 -10 -53 -40 l-19 -36 32 -51 c21 -35 27 -51
17 -51 -31 0 -143 -68 -196 -120 -57 -56 -58 -56 -68 -33 -6 13 -11 35 -11 48
0 13 -4 27 -10 30 -5 3 -10 15 -10 25 0 11 -8 34 -18 52 -22 38 -62 148 -55
148 2 0 18 -13 35 -30 16 -16 40 -30 53 -30 13 0 27 -4 30 -10 10 -17 23 -11
18 8 -3 14 -12 17 -37 14 -27 -3 -38 2 -70 38 -33 36 -37 47 -33 79 8 63 17
90 43 138 77 140 207 201 334 157z m-561 -360 c65 -22 93 -39 121 -71 29 -33
70 -109 70 -129 0 -8 5 -14 10 -14 6 0 10 -20 10 -44 0 -25 5 -48 10 -51 11
-7 14 -65 3 -65 -4 0 -26 19 -50 42 -41 40 -42 42 -25 62 11 13 12 17 2 9 -14
-11 -48 -17 -80 -14 -8 1 -30 15 -47 32 -27 25 -33 37 -33 73 0 29 6 48 18 58
16 13 25 15 75 10 22 -2 23 -44 2 -62 -9 -7 -13 -15 -10 -18 9 -9 45 30 45 49
0 24 -56 62 -80 56 -22 -6 -28 8 -7 16 7 3 5 6 -6 6 -9 1 -26 -4 -36 -10 -19
-13 -71 -5 -71 11 0 5 7 6 17 3 11 -4 14 -3 9 5 -9 16 -36 15 -36 0 0 -6 10
-22 22 -35 19 -21 20 -26 8 -34 -13 -9 -13 -10 0 -6 8 2 14 12 14 21 -2 21 12
21 25 -1 6 -11 5 -26 -1 -42 -5 -14 -6 -37 -3 -51 6 -24 6 -24 -27 8 -19 17
-43 32 -53 32 -11 1 -36 7 -57 14 -30 11 -35 11 -31 0 3 -9 -2 -14 -15 -14
-11 0 -32 -14 -47 -32 -22 -26 -26 -38 -21 -69 4 -25 2 -39 -6 -41 -18 -6 -1
-38 19 -38 17 1 17 1 0 14 -12 9 -14 16 -8 21 6 3 11 2 11 -4 0 -6 7 -8 15 -5
12 5 15 -2 15 -34 0 -35 -3 -41 -26 -46 -15 -4 -33 -14 -41 -22 -8 -8 -20 -11
-26 -7 -8 4 -7 1 1 -9 14 -17 0 -34 -18 -23 -5 3 -10 1 -10 -4 0 -6 6 -11 14
-11 8 0 13 -8 11 -17 -1 -10 2 -24 8 -31 19 -24 -3 -25 -28 -2 -28 27 -32 61
-9 84 12 13 13 16 1 16 -7 0 -19 -12 -26 -27 -10 -23 -9 -30 7 -52 30 -40 64
-60 112 -66 37 -4 40 -3 17 4 -42 14 -56 29 -63 68 -10 51 24 83 86 83 46 0
90 -25 90 -52 0 -6 -8 -4 -18 5 -30 27 -45 21 -38 -13 5 -25 2 -30 -14 -30
-23 0 -26 20 -7 39 10 10 9 11 -5 6 -23 -9 -23 -51 -2 -59 22 -8 47 13 41 36
-6 20 13 24 31 6 17 -17 15 -80 -4 -107 -36 -51 -146 -76 -211 -48 -42 17 -99
70 -123 112 -22 39 -30 177 -12 211 6 10 18 37 28 59 20 46 145 173 195 196
128 61 190 71 268 43z m-86 -171 c4 -3 0 -11 -9 -18 -14 -10 -14 -13 3 -26 16
-13 17 -13 4 4 -12 15 -11 17 10 17 28 0 69 -37 69 -62 0 -19 -15 -24 -25 -8
-8 13 -35 13 -35 0 0 -5 8 -7 18 -3 9 3 -4 -15 -30 -40 -27 -26 -48 -56 -48
-67 0 -25 -26 -26 -42 -1 -10 17 -13 17 -27 3 -15 -14 -16 -14 -19 1 -4 20 15
57 30 57 20 0 48 32 48 56 0 22 -38 69 -48 59 -3 -2 6 -13 18 -23 15 -12 21
-25 17 -35 -7 -20 -43 -23 -50 -4 -4 9 -6 9 -6 -1 -1 -7 9 -17 22 -22 18 -8
13 -9 -23 -7 -42 2 -45 4 -51 36 -6 30 -3 38 23 63 26 24 38 28 87 28 32 0 61
-3 64 -7z"/>
<path d="M4850 4825 c7 -8 17 -15 23 -15 5 0 32 -16 58 -35 27 -19 51 -35 54
-35 3 0 31 -19 62 -42 30 -24 70 -53 87 -64 33 -23 165 -160 205 -214 110
-146 186 -292 205 -390 2 -14 7 -32 10 -40 2 -8 7 -33 10 -55 2 -22 7 -47 10
-55 3 -8 8 -33 11 -55 10 -72 64 -166 125 -214 30 -24 64 -51 75 -60 30 -25
87 -58 225 -129 69 -35 140 -77 158 -93 18 -16 37 -29 41 -29 5 0 11 -10 14
-22 4 -12 9 -19 13 -16 12 13 -32 73 -79 108 -26 19 -86 55 -134 80 -204 104
-351 227 -388 320 -9 25 -30 104 -46 177 -26 121 -77 271 -101 300 -5 7 -18
28 -28 47 -42 84 -144 207 -262 319 -70 66 -129 126 -132 134 -25 65 279 9
564 -104 86 -34 291 -137 358 -179 29 -19 56 -34 61 -34 5 0 11 -3 13 -7 5
-13 116 -93 128 -93 5 0 10 -4 10 -8 0 -5 22 -26 50 -48 62 -49 230 -218 302
-304 212 -254 374 -580 451 -905 155 -654 -7 -1346 -440 -1885 -345 -430 -879
-738 -1431 -826 -146 -24 -562 -28 -653 -7 -83 19 -99 29 -99 59 0 31 24 66
104 154 62 68 83 96 291 380 327 446 341 461 467 522 70 34 90 43 113 48 6 1
18 6 28 12 10 5 31 12 45 14 15 3 32 10 39 16 7 6 13 8 13 5 0 -3 15 -1 33 4
17 6 43 12 57 15 14 3 34 8 45 11 11 4 27 7 35 8 235 31 374 58 397 76 7 7 13
9 13 5 0 -10 81 34 122 66 34 27 88 116 88 146 0 22 -28 -11 -32 -38 -5 -34
-83 -103 -158 -137 -71 -34 -122 -46 -250 -63 -295 -38 -550 -113 -685 -202
-43 -28 -106 -93 -145 -148 -13 -19 -28 -39 -32 -45 -9 -10 -189 -255 -214
-290 -8 -11 -49 -68 -91 -126 -43 -58 -89 -121 -103 -140 -36 -50 -75 -95
-214 -243 -15 -17 -41 -47 -57 -67 l-29 -36 48 -7 c26 -4 72 -12 102 -17 124
-21 362 -31 519 -20 86 5 177 14 204 19 26 5 47 5 47 0 0 -4 9 -8 21 -8 11 0
17 5 14 10 -7 12 6 18 55 24 51 7 111 22 143 34 15 7 27 10 27 8 0 -2 37 10
83 26 45 16 87 30 92 32 47 14 253 109 295 137 22 14 76 47 149 90 14 8 32 19
40 26 9 7 45 33 81 60 36 26 67 50 70 53 3 3 34 30 70 60 81 69 128 116 210
210 36 41 70 81 77 88 7 7 13 17 13 20 0 4 10 18 23 32 25 28 107 148 107 156
0 3 10 19 21 36 24 34 139 257 139 270 0 8 33 88 51 120 5 10 9 27 9 37 0 11
4 22 9 25 5 3 11 18 14 33 3 16 11 46 17 68 17 61 29 115 36 165 4 25 10 52
14 60 4 8 8 33 8 55 1 22 6 69 13 105 12 72 6 391 -10 500 -5 36 -12 88 -16
115 -4 28 -10 59 -15 70 -5 11 -11 34 -14 50 -5 34 -38 148 -53 185 -5 14 -18
50 -29 80 -23 69 -146 317 -185 375 -16 23 -29 48 -29 54 0 6 -4 11 -8 11 -5
0 -15 12 -23 28 -8 15 -24 38 -36 52 -13 14 -23 28 -23 31 0 3 -14 22 -30 40
-17 19 -44 52 -60 74 -82 113 -394 382 -523 450 -20 11 -35 25 -33 32 3 6 -3
11 -12 10 -9 0 -81 32 -160 71 -79 40 -147 72 -153 72 -5 0 -28 9 -52 19 -92
42 -288 99 -402 116 -16 2 -57 9 -90 14 -74 12 -234 31 -265 31 -19 0 -20 -2
-10 -15z"/>
<path d="M6240 3210 c0 -16 -4 -30 -10 -30 -5 0 -10 -9 -10 -20 0 -50 -80
-157 -157 -211 -24 -17 -43 -36 -43 -43 0 -18 37 -50 87 -75 22 -11 50 -32 61
-46 11 -14 23 -25 26 -25 12 0 -22 55 -49 80 -39 36 -48 65 -31 99 8 15 22 34
31 41 21 17 76 97 79 113 1 7 5 17 9 23 9 15 21 124 13 124 -3 0 -6 -13 -6
-30z"/>
<path d="M2852 2728 c-18 -18 -15 -38 6 -37 10 0 12 3 5 6 -22 8 -14 23 12 23
20 0 25 -5 25 -24 0 -45 -42 -47 -125 -6 -112 56 -195 32 -195 -57 0 -35 5
-46 25 -59 14 -9 28 -14 31 -12 2 3 -7 13 -21 22 -41 27 -33 86 16 112 24 12
32 12 49 2 11 -7 23 -21 26 -31 11 -34 -39 -66 -52 -32 -9 24 5 38 24 23 15
-12 16 -11 3 5 -21 27 -43 22 -39 -9 4 -39 32 -53 57 -30 26 23 27 61 4 75
-10 6 -13 11 -7 11 7 0 26 -13 43 -29 34 -32 41 -76 18 -121 -15 -29 -77 -53
-124 -48 -18 2 -34 -1 -36 -6 -2 -7 -13 -6 -32 2 -15 7 -25 16 -21 19 10 10
-15 33 -35 33 -28 0 -13 -26 29 -50 85 -51 195 -30 238 45 7 11 21 20 32 19
12 0 19 3 16 8 -3 4 -12 8 -20 8 -10 0 -14 12 -13 43 0 23 3 35 6 27 3 -8 14
-27 24 -42 23 -32 24 -51 4 -68 -12 -10 -18 -10 -32 1 -17 12 -17 12 -2 -5 14
-15 19 -16 38 -4 26 16 27 43 2 83 l-18 31 34 -4 c18 -2 40 1 48 8 27 23 13
80 -20 80 -6 0 -16 -5 -23 -12z"/>
</g>
</svg>
